  <!-- og-enval -->

<svg xmlns="http://www.w3.org/2000/svg" width="1200" height="630" viewBox="0 0 1200 630">
  <defs>
    <style>
      .h1 { font: 800 92px ui-sans-serif, system-ui, -apple-system, Segoe UI, Inter, Arial; fill: #0f172a; letter-spacing: -1px;}
      .p  { font: 600 36px ui-sans-serif, system-ui, -apple-system, Segoe UI, Inter, Arial; fill: rgba(11,18,32,.62); }
    </style>
    <linearGradient id="wash" x1="0" x2="1" y1="0" y2="1">
      <stop offset="0" stop-color="#FFFFFF"/>
      <stop offset="1" stop-color="#f8fafc"/>
    </linearGradient>
  </defs>

  <rect x="0" y="0" width="1200" height="630" fill="url(#wash)"/>

  <!-- card -->
  <rect x="70" y="80" width="1060" height="470" rx="44" fill="#FFFFFF" stroke="rgba(11,18,32,.08)" stroke-width="2"/>

  <!-- mark (zonder achter-map) -->
  <g transform="translate(140,175) scale(1.08)">
    <path d="M72 70h104c16 0 28 12 28 28v112c0 16-12 28-28 28H72c-16 0-28-12-28-28V98c0-16 12-28 28-28z"
          fill="none" stroke="rgba(11,18,32,.78)" stroke-width="14" stroke-linejoin="round"/>
    <path d="M94 122h88M94 162h88M94 202h64"
          stroke="rgba(11,18,32,.58)" stroke-width="12" stroke-linecap="round"/>
    <circle cx="190" cy="74" r="18" fill="#0f766e"/>
  </g>

  <text x="420" y="270" class="h1">Enval</text>
  <text x="420" y="335" class="p">Dossier per laadpaal</text>
  <text x="420" y="390" class="p">Verificatie</text>
  <text x="420" y="445" class="p">Audit-ready</text>
</svg>